<?xml version="1.0" encoding="UTF-8"?>
<svg width="45.499999999799996mm" height="55.499999999799996mm" viewBox="0.0 0.0 45.499999999799996 55.499999999799996" xmlns="http://www.w3.org/2000/svg" xmlns:xlink="http://www.w3.org/1999/xlink" xmlns:ev="http://www.w3.org/2001/xml-events" version="1.1">
	<g class="com.arcway.cockpit.plan aec0df7900010000017001eaf53e8876">
		<desc>Notation: FMC Block Diagramm, fmc.bd, aec0df7900010000017001eaf53e8876</desc>
		<g class="com.arcway.cockpit.uniqueelement 50feddc00029b1a8016e2872e78ecadc">
			<desc>FiCo-Data, fmc.bd.storage, aec10382ffe793790170ac81c49b15f1</desc>
			<g>
				<desc>null, figure.plane, null</desc>
				<path d="M 5.057692307591463,42.914835164735884 A 7.582417582417939 7.582417582417946 0 0 0 12.640109890009402,50.49725274715383 L 32.85989010979059,50.49725274715383 A 7.582417582417946 7.582417582417946 0 0 0 40.44230769220854,42.914835164735884 L 40.44230769220854,42.914835164735884 A 7.582417582417946 7.582417582417939 0 0 0 32.85989010979059,35.332417582317944 L 12.640109890009402,35.332417582317944 A 7.582417582417939 7.582417582417939 0 0 0 5.057692307591463,42.914835164735884 z" fill="rgb(203,227,244)"/>
				<path d="M 5.057692307591463,42.914835164735884 A 7.582417582417939 7.582417582417946 0 0 0 12.640109890009402,50.49725274715383" stroke="rgb(0,0,0)" stroke-width="0.505494505494528" fill="none" stroke-linecap="round"/>
				<line x1="12.640109890009402" y1="50.49725274715383" x2="32.85989010979059" y2="50.49725274715383" stroke="rgb(0,0,0)" stroke-width="0.505494505494528" stroke-linecap="round"/>
				<path d="M 32.85989010979059,50.49725274715383 A 7.582417582417946 7.582417582417946 0 0 0 40.44230769220854,42.914835164735884" stroke="rgb(0,0,0)" stroke-width="0.505494505494528" fill="none" stroke-linecap="round"/>
				<path d="M 40.44230769220854,42.914835164735884 A 7.582417582417946 7.582417582417939 0 0 0 32.85989010979059,35.332417582317944" stroke="rgb(0,0,0)" stroke-width="0.505494505494528" fill="none" stroke-linecap="round"/>
				<line x1="32.85989010979059" y1="35.332417582317944" x2="12.640109890009402" y2="35.332417582317944" stroke="rgb(0,0,0)" stroke-width="0.505494505494528" stroke-linecap="round"/>
				<path d="M 12.640109890009402,35.332417582317944 A 7.582417582417939 7.582417582417939 0 0 0 5.057692307591463,42.914835164735884" stroke="rgb(0,0,0)" stroke-width="0.505494505494528" fill="none" stroke-linecap="round"/>
				<g>
					<desc>null, supplement, null</desc>
					<text x="22.7499999999" y="44.27967032957112" textLength="18.440439560440435" lengthAdjust="spacingAndGlyphs" text-anchor="middle" font-family="Arial" font-size="4.064175824176017">FiCo-Data</text>
				</g>
			</g>
		</g>
		<g class="com.arcway.cockpit.uniqueelement 50fbfe8f0029b1a8016ea86245a9d83a">
			<desc>FiCo-Application, fmc.bd.agent, aec19cbaffe79379017062c66543f984</desc>
			<g>
				<desc>null, figure.plane, null</desc>
				<path d=" M 5.057692307591463,25.22252747242735 L 40.44230769220854,25.22252747242735 L 40.44230769220854,5.002747252646168 L 5.057692307591463,5.002747252646168 z" fill="rgb(203,227,244)"/>
				<line x1="5.057692307591463" y1="25.22252747242735" x2="40.442307692208544" y2="25.22252747242735" stroke="rgb(0,0,0)" stroke-width="0.505494505494528" stroke-linecap="round"/>
				<line x1="40.44230769220854" y1="25.22252747242735" x2="40.44230769220854" y2="5.00274725264617" stroke="rgb(0,0,0)" stroke-width="0.505494505494528" stroke-linecap="round"/>
				<line x1="40.44230769220854" y1="5.002747252646168" x2="5.057692307591459" y2="5.002747252646168" stroke="rgb(0,0,0)" stroke-width="0.505494505494528" stroke-linecap="round"/>
				<line x1="5.057692307591463" y1="5.002747252646168" x2="5.057692307591463" y2="25.222527472427338" stroke="rgb(0,0,0)" stroke-width="0.505494505494528" stroke-linecap="round"/>
				<g>
					<desc>null, supplement, null</desc>
					<text x="22.7499999999" y="16.477472527371987" textLength="29.78373626373767" lengthAdjust="spacingAndGlyphs" text-anchor="middle" font-family="Arial" font-size="4.064175824176016">FiCo-Application</text>
				</g>
			</g>
		</g>
		<g>
			<desc>, fmc.bd.modifyingstorageaccess, aec24748ffe793790170938a7b8327e0</desc>
			<g>
				<desc>null, figure.lineshape, null</desc>
			</g>
			<g>
				<desc>null, figure.lineshape, null</desc>
				<path d="M 25.352867356830238,25.279962142420523 A 6.3186813186816195 6.318681318681622 0 0 1 26.25416148510082,34.42390287922184" stroke="rgb(0,0,0)" stroke-width="0.25274725274726273" fill="none" stroke-linecap="round"/>
				<path d="M 25.478186420988507,35.37386230258271 A 0.19289288354896533 0.19289288354898187 0 0 1 25.25063385988192,35.129234369784044 L 25.69241029977624,33.69063372643044 A 0.20247654693971776 0.2024765469397491 0 0 1 26.082821805872065,33.70269566165304 L 26.082821805872065,33.702695661653046 A 1.313543434626547 1.3135434346265389 0 0 0 26.961108788434306,34.64688863361224 L 26.96110878843431,34.64688863361225 A 0.20247654693973327 0.20247654693972844 0 0 1 26.94493934398053,35.0371516006478 z"/>
			</g>
			<g>
				<desc>null, figure.lineshape, null</desc>
				<path d="M 20.147132642969762,35.274982912324774 A 6.318681318681622 6.318681318681624 0 0 1 19.245838514699177,26.13104217552346" stroke="rgb(0,0,0)" stroke-width="0.25274725274726273" fill="none" stroke-linecap="round"/>
				<path d="M 20.021813578811482,25.18108275216258 A 0.19289288354896872 0.1928928835489784 0 0 1 20.249366139918074,25.42571068496124 L 19.80758970002376,26.864311328314848 A 0.20247654693971515 0.20247654693974668 0 0 1 19.417178193927942,26.85224939309225 L 19.417178193927942,26.852249393092244 A 1.3135434346265316 1.3135434346265256 0 0 0 18.538891211365705,25.90805642113305 L 18.5388912113657,25.908056421133047 A 0.20247654693973677 0.20247654693973194 0 0 1 18.55506065581948,25.517793454097482 z"/>
			</g>
		</g>
	</g>
</svg>
